<mxfile host="app.diagrams.net" modified="2023-12-23T09:49:57.570Z" agent="Mozilla/5.0 (X11; Linux x86_64) AppleWebKit/537.36 (KHTML, like Gecko) Chrome/112.0.0.0 Safari/537.36" etag="BSRclpgJc9-tfOTV-YTN" version="22.1.11" type="github">
  <diagram name="Page-1" id="h1spXaMXtqRSPBxJIH6n">
    <mxGraphModel dx="1367" dy="747" grid="1" gridSize="10" guides="1" tooltips="1" connect="1" arrows="1" fold="1" page="1" pageScale="1" pageWidth="850" pageHeight="1100" math="0" shadow="0">
      <root>
        <mxCell id="0" />
        <mxCell id="1" parent="0" />
      </root>
    </mxGraphModel>
  </diagram>
</mxfile>
